<svg xmlns="http://www.w3.org/2000/svg" width="1200" height="780" viewBox="0 0 1200 780">
<style>text{font-family:Arial,sans-serif;fill:#1f2937} .small{font-size:11px} .axis{stroke:#9ca3af;stroke-width:1}</style>
<rect x="0" y="0" width="1200" height="780" fill="white"/>
<text x="260" y="45" font-size="26" font-weight="700">Sentiment Composition by Top Locations</text>
<rect x="260.0" y="97.8" width="6.1" height="36.2" fill="#d62728"/>
<rect x="266.1" y="97.8" width="809.9" height="36.2" fill="#7f7f7f"/>
<rect x="1076.1" y="97.8" width="33.9" height="36.2" fill="#2ca02c"/>
<text class="small" x="250" y="123.8" text-anchor="end">Dhaka</text>
<rect x="260.0" y="149.4" width="2.5" height="36.2" fill="#d62728"/>
<rect x="262.5" y="149.4" width="811.8" height="36.2" fill="#7f7f7f"/>
<rect x="1074.4" y="149.4" width="35.6" height="36.2" fill="#2ca02c"/>
<text class="small" x="250" y="175.5" text-anchor="end">Chattogram</text>
<rect x="260.0" y="201.1" width="11.3" height="36.2" fill="#d62728"/>
<rect x="271.3" y="201.1" width="821.7" height="36.2" fill="#7f7f7f"/>
<rect x="1093.0" y="201.1" width="17.0" height="36.2" fill="#2ca02c"/>
<text class="small" x="250" y="227.1" text-anchor="end">Barishal</text>
<rect x="260.0" y="252.8" width="11.8" height="36.2" fill="#d62728"/>
<rect x="271.8" y="252.8" width="814.6" height="36.2" fill="#7f7f7f"/>
<rect x="1086.4" y="252.8" width="23.6" height="36.2" fill="#2ca02c"/>
<text class="small" x="250" y="278.8" text-anchor="end">Khulna</text>
<rect x="260.0" y="304.4" width="8.3" height="36.2" fill="#d62728"/>
<rect x="268.3" y="304.4" width="833.3" height="36.2" fill="#7f7f7f"/>
<rect x="1101.7" y="304.4" width="8.3" height="36.2" fill="#2ca02c"/>
<text class="small" x="250" y="330.5" text-anchor="end">Sylhet</text>
<rect x="260.0" y="356.1" width="810.0" height="36.2" fill="#7f7f7f"/>
<rect x="1070.0" y="356.1" width="40.0" height="36.2" fill="#2ca02c"/>
<text class="small" x="250" y="382.1" text-anchor="end">Cumilla</text>
<rect x="260.0" y="407.8" width="8.8" height="36.2" fill="#d62728"/>
<rect x="268.8" y="407.8" width="814.9" height="36.2" fill="#7f7f7f"/>
<rect x="1083.7" y="407.8" width="26.3" height="36.2" fill="#2ca02c"/>
<text class="small" x="250" y="433.8" text-anchor="end">Gazipur</text>
<rect x="260.0" y="459.4" width="19.3" height="36.2" fill="#d62728"/>
<rect x="279.3" y="459.4" width="782.4" height="36.2" fill="#7f7f7f"/>
<rect x="1061.7" y="459.4" width="48.3" height="36.2" fill="#2ca02c"/>
<text class="small" x="250" y="485.5" text-anchor="end">Mymensingh</text>
<rect x="260.0" y="511.1" width="21.8" height="36.2" fill="#d62728"/>
<rect x="281.8" y="511.1" width="784.6" height="36.2" fill="#7f7f7f"/>
<rect x="1066.4" y="511.1" width="43.6" height="36.2" fill="#2ca02c"/>
<text class="small" x="250" y="537.1" text-anchor="end">Rangpur</text>
<rect x="260.0" y="562.8" width="11.2" height="36.2" fill="#d62728"/>
<rect x="271.2" y="562.8" width="816.4" height="36.2" fill="#7f7f7f"/>
<rect x="1087.6" y="562.8" width="22.4" height="36.2" fill="#2ca02c"/>
<text class="small" x="250" y="588.8" text-anchor="end">Noakhali</text>
<rect x="260.0" y="614.4" width="13.1" height="36.2" fill="#d62728"/>
<rect x="273.1" y="614.4" width="810.8" height="36.2" fill="#7f7f7f"/>
<rect x="1083.8" y="614.4" width="26.2" height="36.2" fill="#2ca02c"/>
<text class="small" x="250" y="640.5" text-anchor="end">Rajshahi</text>
<rect x="260.0" y="666.1" width="788.2" height="36.2" fill="#7f7f7f"/>
<rect x="1048.2" y="666.1" width="61.8" height="36.2" fill="#2ca02c"/>
<text class="small" x="250" y="692.1" text-anchor="end">Kishoreganj</text>
<rect x="920" y="35" width="12" height="12" fill="#d62728"/>
<text class="small" x="938" y="45">negative</text>
<rect x="920" y="55" width="12" height="12" fill="#8b0000"/>
<text class="small" x="938" y="65">sarcastic_negative</text>
<rect x="920" y="75" width="12" height="12" fill="#7f7f7f"/>
<text class="small" x="938" y="85">neutral</text>
<rect x="920" y="95" width="12" height="12" fill="#2ca02c"/>
<text class="small" x="938" y="105">positive</text>
</svg>