<svg xmlns="http://www.w3.org/2000/svg" width="1200" height="820" viewBox="0 0 1200 820">
<style>text{font-family:Arial,sans-serif;fill:#1f2937} .small{font-size:11px} .axis{stroke:#9ca3af;stroke-width:1}</style>
<rect x="0" y="0" width="1200" height="820" fill="white"/>
<text x="280" y="45" font-size="26" font-weight="700">Largest Mention Changes (Period B - Period A)</text>
<line class="axis" x1="700.0" y1="85" x2="700.0" y2="750" stroke="#374151"/>
<rect x="697.5" y="89.2" width="2.5" height="26.2" fill="#d62728" opacity="0.88"/>
<text class="small" x="270" y="108.1" text-anchor="end">Rajbari</text>
<text class="small" x="689.5" y="108.1" text-anchor="end">-3</text>
<rect x="698.4" y="124.2" width="1.6" height="26.2" fill="#d62728" opacity="0.88"/>
<text class="small" x="270" y="143.1" text-anchor="end">Kurigram</text>
<text class="small" x="690.4" y="143.1" text-anchor="end">-2</text>
<rect x="699.2" y="159.2" width="0.8" height="26.2" fill="#d62728" opacity="0.88"/>
<text class="small" x="270" y="178.1" text-anchor="end">খাও হালুয়া</text>
<text class="small" x="691.2" y="178.1" text-anchor="end">-1</text>
<rect x="699.2" y="194.2" width="0.8" height="26.2" fill="#d62728" opacity="0.88"/>
<text class="small" x="270" y="213.1" text-anchor="end">Meherpur</text>
<text class="small" x="691.2" y="213.1" text-anchor="end">-1</text>
<rect x="699.2" y="229.2" width="0.8" height="26.2" fill="#d62728" opacity="0.88"/>
<text class="small" x="270" y="248.1" text-anchor="end">Moulvibazar</text>
<text class="small" x="691.2" y="248.1" text-anchor="end">-1</text>
<rect x="699.2" y="264.2" width="0.8" height="26.2" fill="#d62728" opacity="0.88"/>
<text class="small" x="270" y="283.1" text-anchor="end">Nilphamari</text>
<text class="small" x="691.2" y="283.1" text-anchor="end">-1</text>
<rect x="699.2" y="299.2" width="0.8" height="26.2" fill="#d62728" opacity="0.88"/>
<text class="small" x="270" y="318.1" text-anchor="end">Brahmanbaria</text>
<text class="small" x="691.2" y="318.1" text-anchor="end">-1</text>
<rect x="699.2" y="334.2" width="0.8" height="26.2" fill="#d62728" opacity="0.88"/>
<text class="small" x="270" y="353.1" text-anchor="end">Netrokona</text>
<text class="small" x="691.2" y="353.1" text-anchor="end">-1</text>
<rect x="700.0" y="369.2" width="0.8" height="26.2" fill="#2ca02c" opacity="0.88"/>
<text class="small" x="270" y="388.1" text-anchor="end">Rangamati</text>
<text class="small" x="708.8" y="388.1" text-anchor="start">1</text>
<rect x="700.0" y="404.2" width="27.0" height="26.2" fill="#2ca02c" opacity="0.88"/>
<text class="small" x="270" y="423.1" text-anchor="end">Noakhali</text>
<text class="small" x="735.0" y="423.1" text-anchor="start">33</text>
<rect x="700.0" y="439.2" width="27.8" height="26.2" fill="#2ca02c" opacity="0.88"/>
<text class="small" x="270" y="458.1" text-anchor="end">Rangpur</text>
<text class="small" x="735.8" y="458.1" text-anchor="start">34</text>
<rect x="700.0" y="474.2" width="28.6" height="26.2" fill="#2ca02c" opacity="0.88"/>
<text class="small" x="270" y="493.1" text-anchor="end">Bogura</text>
<text class="small" x="736.6" y="493.1" text-anchor="start">35</text>
<rect x="700.0" y="509.2" width="31.1" height="26.2" fill="#2ca02c" opacity="0.88"/>
<text class="small" x="270" y="528.1" text-anchor="end">Sylhet</text>
<text class="small" x="739.1" y="528.1" text-anchor="start">38</text>
<rect x="700.0" y="544.2" width="36.8" height="26.2" fill="#2ca02c" opacity="0.88"/>
<text class="small" x="270" y="563.1" text-anchor="end">Gazipur</text>
<text class="small" x="744.8" y="563.1" text-anchor="start">45</text>
<rect x="700.0" y="579.2" width="45.8" height="26.2" fill="#2ca02c" opacity="0.88"/>
<text class="small" x="270" y="598.1" text-anchor="end">Cumilla</text>
<text class="small" x="753.8" y="598.1" text-anchor="start">56</text>
<rect x="700.0" y="614.2" width="60.5" height="26.2" fill="#2ca02c" opacity="0.88"/>
<text class="small" x="270" y="633.1" text-anchor="end">Barishal</text>
<text class="small" x="768.5" y="633.1" text-anchor="start">74</text>
<rect x="700.0" y="649.2" width="80.9" height="26.2" fill="#2ca02c" opacity="0.88"/>
<text class="small" x="270" y="668.1" text-anchor="end">Khulna</text>
<text class="small" x="788.9" y="668.1" text-anchor="start">99</text>
<rect x="700.0" y="684.2" width="136.5" height="26.2" fill="#2ca02c" opacity="0.88"/>
<text class="small" x="270" y="703.1" text-anchor="end">Chattogram</text>
<text class="small" x="844.5" y="703.1" text-anchor="start">167</text>
<rect x="700.0" y="719.2" width="420.0" height="26.2" fill="#2ca02c" opacity="0.88"/>
<text class="small" x="270" y="738.1" text-anchor="end">Dhaka</text>
<text class="small" x="1128.0" y="738.1" text-anchor="start">514</text>
</svg>