<svg xmlns="http://www.w3.org/2000/svg" width="1200" height="780" viewBox="0 0 1200 780">
<style>text{font-family:Arial,sans-serif;fill:#1f2937} .small{font-size:11px} .axis{stroke:#9ca3af;stroke-width:1}</style>
<rect x="0" y="0" width="1200" height="780" fill="white"/>
<text x="260" y="45" font-size="26" font-weight="700">Top Locations Overall (Mentions)</text>
<line class="axis" x1="260" y1="710" x2="1130" y2="710"/>
<line class="axis" x1="260.0" y1="80" x2="260.0" y2="710" stroke="#f3f4f6"/>
<text class="small" x="260.0" y="730" text-anchor="middle">0</text>
<line class="axis" x1="434.0" y1="80" x2="434.0" y2="710" stroke="#f3f4f6"/>
<text class="small" x="434.0" y="730" text-anchor="middle">4796</text>
<line class="axis" x1="608.0" y1="80" x2="608.0" y2="710" stroke="#f3f4f6"/>
<text class="small" x="608.0" y="730" text-anchor="middle">9592</text>
<line class="axis" x1="782.0" y1="80" x2="782.0" y2="710" stroke="#f3f4f6"/>
<text class="small" x="782.0" y="730" text-anchor="middle">14388</text>
<line class="axis" x1="956.0" y1="80" x2="956.0" y2="710" stroke="#f3f4f6"/>
<text class="small" x="956.0" y="730" text-anchor="middle">19184</text>
<line class="axis" x1="1130.0" y1="80" x2="1130.0" y2="710" stroke="#f3f4f6"/>
<text class="small" x="1130.0" y="730" text-anchor="middle">23980</text>
<rect x="260" y="85.9" width="870.0" height="30.2" fill="#1f77b4" opacity="0.9"/>
<text class="small" x="248" y="107.7" text-anchor="end">Dhaka</text>
<text class="small" x="1138.0" y="107.7">23980</text>
<rect x="260" y="127.9" width="247.6" height="30.2" fill="#1f77b4" opacity="0.9"/>
<text class="small" x="248" y="149.7" text-anchor="end">Chattogram</text>
<text class="small" x="515.6" y="149.7">6825</text>
<rect x="260" y="169.9" width="100.0" height="30.2" fill="#1f77b4" opacity="0.9"/>
<text class="small" x="248" y="191.7" text-anchor="end">Sylhet</text>
<text class="small" x="368.0" y="191.7">2755</text>
<rect x="260" y="211.9" width="96.7" height="30.2" fill="#1f77b4" opacity="0.9"/>
<text class="small" x="248" y="233.7" text-anchor="end">Barishal</text>
<text class="small" x="364.7" y="233.7">2665</text>
<rect x="260" y="253.9" width="92.0" height="30.2" fill="#1f77b4" opacity="0.9"/>
<text class="small" x="248" y="275.7" text-anchor="end">Khulna</text>
<text class="small" x="360.0" y="275.7">2535</text>
<rect x="260" y="295.9" width="84.4" height="30.2" fill="#1f77b4" opacity="0.9"/>
<text class="small" x="248" y="317.7" text-anchor="end">Cumilla</text>
<text class="small" x="352.4" y="317.7">2325</text>
<rect x="260" y="337.9" width="61.5" height="30.2" fill="#1f77b4" opacity="0.9"/>
<text class="small" x="248" y="359.7" text-anchor="end">Gazipur</text>
<text class="small" x="329.5" y="359.7">1695</text>
<rect x="260" y="379.9" width="59.5" height="30.2" fill="#1f77b4" opacity="0.9"/>
<text class="small" x="248" y="401.7" text-anchor="end">Rangpur</text>
<text class="small" x="327.5" y="401.7">1640</text>
<rect x="260" y="421.9" width="51.0" height="30.2" fill="#1f77b4" opacity="0.9"/>
<text class="small" x="248" y="443.7" text-anchor="end">Mymensingh</text>
<text class="small" x="319.0" y="443.7">1405</text>
<rect x="260" y="463.9" width="47.0" height="30.2" fill="#1f77b4" opacity="0.9"/>
<text class="small" x="248" y="485.7" text-anchor="end">Rajshahi</text>
<text class="small" x="315.0" y="485.7">1295</text>
<rect x="260" y="505.9" width="35.4" height="30.2" fill="#1f77b4" opacity="0.9"/>
<text class="small" x="248" y="527.7" text-anchor="end">Noakhali</text>
<text class="small" x="303.4" y="527.7">975</text>
<rect x="260" y="547.9" width="33.2" height="30.2" fill="#1f77b4" opacity="0.9"/>
<text class="small" x="248" y="569.7" text-anchor="end">Bogura</text>
<text class="small" x="301.2" y="569.7">915</text>
<rect x="260" y="589.9" width="33.0" height="30.2" fill="#1f77b4" opacity="0.9"/>
<text class="small" x="248" y="611.7" text-anchor="end">Chandpur</text>
<text class="small" x="301.0" y="611.7">910</text>
<rect x="260" y="631.9" width="30.8" height="30.2" fill="#1f77b4" opacity="0.9"/>
<text class="small" x="248" y="653.7" text-anchor="end">Tangail</text>
<text class="small" x="298.8" y="653.7">850</text>
<rect x="260" y="673.9" width="28.7" height="30.2" fill="#1f77b4" opacity="0.9"/>
<text class="small" x="248" y="695.7" text-anchor="end">Pabna</text>
<text class="small" x="296.7" y="695.7">790</text>
</svg>